<svg xmlns="http://www.w3.org/2000/svg" viewBox="0 0 565.71 792" xmlns:v="https://vecta.io/nano" width="100%" height="100%"><path d="M314.9 0H22.65C10.141 0 0 10.141 0 22.65h0v746.7C0 781.859 10.141 792 22.65 792h520.4c12.509 0 22.65-10.141 22.65-22.65V250.93H314.9z" fill="#1e90ff"/><path d="M314.9 250.87h250.74L314.9.13v250.74z" fill="#46a3ff"/><path d="M565.71 501.67v-250.8h-.07H314.9h0l250.81 250.8z" fill="#333" opacity=".1"/><path d="M45.73 529.91h14.76V679H45.73zm14.12 135.35h33.73q20.71 0 31-9.69 10.29-9.69 10.31-29.17v-43.89q0-19.49-10.31-29.17-10.31-9.68-31-9.69H59.85v-13.74h33.12q19 0 31.58 5.89a39.71 39.71 0 0 1 18.87 17.79q6.26 11.91 6.25 29.74v42.25q0 17.83-6.3 29.68a40.19 40.19 0 0 1-18.92 17.79q-12.62 6-31.58 6H59.85zm140.56 8.82a42.58 42.58 0 0 1-17.89-18.77q-6.16-12.3-6.16-29.73v-42.25q0-17.43 6.16-29.74a42.61 42.61 0 0 1 17.89-18.76q11.74-6.47 28.35-6.46 16.61.01 28.35 6.46a42.69 42.69 0 0 1 17.9 18.76q6.15 12.31 6.15 29.74v42.25q0 17.43-6.15 29.73a42.66 42.66 0 0 1-17.9 18.77q-11.75 6.45-28.35 6.46-16.6.01-28.35-6.46zm48.7-12.08a31 31 0 0 0 12.87-13.84q4.41-9.08 4.41-21.9v-43.65q0-12.81-4.41-21.89a31 31 0 0 0-12.87-13.84q-8.46-4.77-20.35-4.77-11.89 0-20.35 4.77a31 31 0 0 0-12.87 13.84q-4.41 9.07-4.41 21.89v43.68q0 12.83 4.41 21.9A31 31 0 0 0 208.41 662q8.46 4.77 20.35 4.77 11.89 0 20.35-4.77zm83.37 11.67a46.64 46.64 0 0 1-18.2-19.48q-6.43-12.62-6.43-29.19v-40.95q0-16.62 6.46-29.22a47 47 0 0 1 18.2-19.54q11.75-6.91 27.22-6.92a53.22 53.22 0 0 1 23.59 5.23 49.22 49.22 0 0 1 18 14.82 54.14 54.14 0 0 1 9.79 22.2h-14.8a39.31 39.31 0 0 0-8-14.87 40 40 0 0 0-13.07-10 35.49 35.49 0 0 0-15.49-3.59 36.07 36.07 0 0 0-19.48 5.23 34.75 34.75 0 0 0-13 14.71 49.7 49.7 0 0 0-4.62 22V625a49.7 49.7 0 0 0 4.62 22 34.38 34.38 0 0 0 13 14.66 36.4 36.4 0 0 0 19.48 5.18 37.18 37.18 0 0 0 15.49-3.39 37.56 37.56 0 0 0 13.07-9.84 39.13 39.13 0 0 0 8-15.28h14.76a53.82 53.82 0 0 1-9.84 22.2 49.57 49.57 0 0 1-18.05 14.82 53.07 53.07 0 0 1-23.48 5.23q-15.48-.04-27.22-6.91zm142.37-77.42l43-66.34h16.3l-51 78.75L437.63 679h-16.3zm.31 14.15l-3-4.61-49.63-75.88h16.32l42 64.39 2.67 4.1 52.86 80.6h-16.31z" fill="#F8F8FF"/></svg>