<svg xmlns="http://www.w3.org/2000/svg" viewBox="0 0 750 750" xmlns:v="https://vecta.io/nano"><g fill="none" stroke="#e46" stroke-width="38.25" stroke-linejoin="round" stroke-miterlimit="4.7812"><path d="M76.2 708.5h597.7c31 0 56.1-25 56.1-56v-.1c0-9.3-2.3-18.4-6.7-26.7L424.4 71c-21.2-39.3-77.7-39.3-98.9 0L26.7 625.9c-14.7 27.4-4.6 61.4 22.8 75.9 8.2 4.4 17.4 6.7 26.7 6.7h0z"/><path d="M365.2 275.2l9.9 210.9 9.9-210.7c.2-5.5-4-10.2-9.5-10.4h-.5 0c-5.5 0-9.9 4.5-9.9 10 .1.1.1.1.1.2h0z"/></g><path d="M375 584.6c-13.1 0-23.9-10.8-23.9-23.9s10.8-23.9 23.9-23.9 23.9 10.8 23.9 23.9-10.8 23.9-23.9 23.9z" fill="#e46"/></svg>