<svg xmlns="http://www.w3.org/2000/svg" viewBox="0 0 565.71 792" xmlns:v="https://vecta.io/nano" width="100%" height="100%"><path d="M314.9 0H22.65C10.141 0 0 10.141 0 22.65h0v746.7C0 781.859 10.141 792 22.65 792h520.4c12.509 0 22.65-10.141 22.65-22.65V250.93H314.9z" fill="#1e90ff"/><path d="M314.9 250.87h250.74L314.9.13v250.74z" fill="#46a3ff"/><path d="M565.71 501.67v-250.8h-.07H314.9h0l250.81 250.8z" fill="#333" opacity=".1"/><path d="M209.85 529.91h15.49V679h-14.78V550.93l1.54 6.56-44.91 100.8h-10.46l-44.88-98.75 1.54-8.61V679h-14.8V529.91h15.48l47.89 107.66zm52.39 0h14.77V679h-14.77zm10.77 77.52h47.68a29.38 29.38 0 0 0 15.38-4 26.91 26.91 0 0 0 10.3-11.18 36.18 36.18 0 0 0 3.64-16.61 36.74 36.74 0 0 0-3.64-16.76 26.8 26.8 0 0 0-10.3-11.23 29.29 29.29 0 0 0-15.38-4h-47.68v-13.74h47q13.32 0 23.48 5.69a39.5 39.5 0 0 1 15.74 16q5.6 10.35 5.59 24-.01 13.65-5.59 23.84a39.68 39.68 0 0 1-15.74 16 47.27 47.27 0 0 1-23.48 5.69h-47zm133.4 68.7a37 37 0 0 1-15.33-12.87 45.8 45.8 0 0 1-7.33-20.35h14.87a29.37 29.37 0 0 0 5.12 12.81 24.55 24.55 0 0 0 10.21 8.1 35.7 35.7 0 0 0 14.51 2.77q13.32 0 20.66-7.12 7.34-7.12 7.33-20.15v-4.51q0-12.62-7.08-19.54-7.08-6.92-19.89-6.92h-10.56v-13.74h10.56q11.69 0 18.1-6.05 6.41-6.05 6.41-17v-4.62q0-11.79-6.72-18.2-6.72-6.41-18.92-6.4a28.3 28.3 0 0 0-12.4 2.66 25.79 25.79 0 0 0-9.39 7.69 32.58 32.58 0 0 0-5.59 12.2h-14.76a49.37 49.37 0 0 1 7.74-19.68 37.39 37.39 0 0 1 14.46-12.51 44.64 44.64 0 0 1 19.94-4.31q19.28 0 29.84 10.15 10.56 10.15 10.56 28.61v4.51a32.9 32.9 0 0 1-5 18.2 28.77 28.77 0 0 1-14.1 11.33 25.14 25.14 0 0 1 15.89 11.28q5.64 8.82 5.64 22.46v4.51q0 13-5 22.25a33.2 33.2 0 0 1-14.61 14.05q-9.6 4.81-23.12 4.82a52 52 0 0 1-22.04-4.43z" fill="#F8F8FF"/></svg>