<svg xmlns="http://www.w3.org/2000/svg" viewBox="0 0 565.71 792" xmlns:v="https://vecta.io/nano" width="100%" height="100%"><path d="M314.9 0H22.65C10.141 0 0 10.141 0 22.65h0v746.7C0 781.859 10.141 792 22.65 792h520.4c12.509 0 22.65-10.141 22.65-22.65V250.93H314.9z" fill="#1e90ff"/><path d="M314.9 250.87h250.74L314.9.13v250.74z" fill="#46a3ff"/><path d="M565.71 501.67v-250.8h-.07H314.9h0l250.81 250.8z" fill="#333" opacity=".1"/><path d="M110.38 529.91h14.76V679h-14.76zm10.77 77.52h47.7a29.38 29.38 0 0 0 15.38-4 26.91 26.91 0 0 0 10.3-11.18 36.18 36.18 0 0 0 3.64-16.61 36.74 36.74 0 0 0-3.64-16.76 26.8 26.8 0 0 0-10.3-11.23 29.29 29.29 0 0 0-15.38-4h-47.7v-13.74h47q13.32 0 23.48 5.69a39.5 39.5 0 0 1 15.74 16q5.6 10.35 5.59 24-.01 13.65-5.59 23.84a39.68 39.68 0 0 1-15.74 16 47.27 47.27 0 0 1-23.48 5.69h-47zm117.92-77.52h14.78V679h-14.78zm14.15 135.35h33.73q20.72 0 31-9.69 10.28-9.69 10.3-29.17v-43.89q0-19.49-10.3-29.17-10.3-9.68-31-9.69h-33.73v-13.74h33.12q19 0 31.58 5.89a39.75 39.75 0 0 1 18.87 17.79q6.24 11.91 6.25 29.74v42.25q0 17.83-6.31 29.68a40.17 40.17 0 0 1-18.88 17.79q-12.62 6-31.59 6h-33zm121.63-135.35h14.76V679h-14.76zm10.25 0h83.55v13.74h-83.57zm0 69.52h72.29v13.74h-72.31z" fill="#F8F8FF"/></svg>