<svg xmlns="http://www.w3.org/2000/svg" viewBox="0 0 750 750" xmlns:v="https://vecta.io/nano"><path d="M632 79.8H121.4c-43.3 2.7-46.1 66.8-46.1 66.8h600C672.4 72.8 632 79.8 632 79.8h0zM465.6.8H280.1s-25.5 1.4-37.6 50h265c-1.4.1-13.4-40.8-41.9-50zm174.1 174.3h-530l1.4 535.5c-1.7 20.4 13.4 38.4 33.8 40.1 2.1.2 4.2.2 6.4 0h445.3c22.9.9 42.3-16.8 43.2-39.7v-3.2-532.9l-.1.2h0zm-365 482.7s1.3 20.5-25 20.5c-12.1.2-22.7-8.5-25-20.5V269c1.3-12.6 12.4-21.7 25-20.5 12.3-1.4 23.5 7.6 24.9 20 0 .2 0 .4.1.5v388.8h0zm125.5 0s1.4 20.5-25 20.5c-12.1 0-22.4-8.6-24.6-20.5V269c1.3-12.6 12.5-21.7 25-20.5 12.4-1.4 23.5 7.6 24.9 20 0 .2 0 .4.1.5l-.4 388.8h0zm125.4 0s1.4 20.5-25.1 20.5c-12.1.2-22.6-8.5-24.9-20.5V269c1.3-12.6 12.4-21.7 24.9-20.5 12.3-1.4 23.4 7.6 24.8 20 0 .2 0 .4.1.5l.2 388.8h0z"/></svg>