<svg xmlns="http://www.w3.org/2000/svg" viewBox="0 0 565.71 792" xmlns:v="https://vecta.io/nano" width="100%" height="100%"><path d="M314.9 0H22.65C10.141 0 0 10.141 0 22.65h0v746.7C0 781.859 10.141 792 22.65 792h520.4c12.509 0 22.65-10.141 22.65-22.65V250.93H314.9z" fill="#1e90ff"/><path d="M314.9 250.87h250.74L314.9.13v250.74z" fill="#46a3ff"/><path d="M565.71 501.67v-250.8h-.07H314.9h0l250.81 250.8z" fill="#333" opacity=".1"/><path d="M97 596.25l43-66.34h16.31l-51 78.75L59.78 679H43.47zm.31 14.15l-3-4.61-49.61-75.88h16.31l42 64.39 2.66 4.1 52.85 80.6h-16.3zm83.77-80.49h14.77V679h-14.77zm10.46 135.35h85.31V679h-85.31zm130.22 13.23a77 77 0 0 1-18-6.16 76 76 0 0 1-15.64-10.25l8.92-11.69a64.37 64.37 0 0 0 20.61 12.31 71.31 71.31 0 0 0 24.51 4.1q19.17 0 29.68-7.59 10.51-7.59 10.51-21.33v-.1q0-8.5-4.56-13.64a27.89 27.89 0 0 0-11.79-7.69 129.16 129.16 0 0 0-18.61-4.72 6 6 0 0 0-.67-.15 6.12 6.12 0 0 1-.77-.15l-3-.62a189.3 189.3 0 0 1-25.12-6.2 36.19 36.19 0 0 1-16-11q-6.62-7.74-6.61-21.49v-.1q0-13.84 6.2-23.63 6.2-9.79 18.1-14.92 11.89-5.13 28.61-5.13a71 71 0 0 1 15.63 1.74 78.68 78.68 0 0 1 15.28 5.18 91 91 0 0 1 14.91 8.74l-8.72 11.58a81.23 81.23 0 0 0-18.86-10.1 53.52 53.52 0 0 0-18.25-3.33q-18.25 0-28.31 7.69-10.06 7.69-10 21.64v.1q0 8.41 5 13.28a31 31 0 0 0 12.46 7.23A198.61 198.61 0 0 0 347.6 597l.87.2 1 .21a13.64 13.64 0 0 1 1.18.25 10.21 10.21 0 0 0 1.18.26 142.78 142.78 0 0 1 23.38 6.56A36.76 36.76 0 0 1 390.72 616q6.21 7.85 6.2 21.17v.21q0 13.64-6.46 23.33-6.46 9.69-18.71 14.75-12.25 5.09-29.58 5.08a98.43 98.43 0 0 1-20.41-2.05zm138.94-82.24l43-66.34H520l-51 78.75L423.48 679h-16.3zm.31 14.15l-3-4.61-49.63-75.88h16.3l42 64.39 2.67 4.1 52.88 80.6h-16.31z" fill="#F8F8FF"/></svg>