<svg xmlns="http://www.w3.org/2000/svg" viewBox="0 0 565.71 792" xmlns:v="https://vecta.io/nano" width="100%" height="100%"><path d="M314.9 0H22.65C10.141 0 0 10.141 0 22.65h0v746.7C0 781.859 10.141 792 22.65 792h520.4c12.509 0 22.65-10.141 22.65-22.65V250.93H314.9z" fill="#1e90ff"/><path d="M314.9 250.87h250.74L314.9.13v250.74z" fill="#46a3ff"/><path d="M565.71 501.67v-250.8h-.07H314.9h0l250.81 250.8z" fill="#333" opacity=".1"/><path d="M234.4 540.78l-73.62 125.51h75.67V679h-92.69v-10.87l74.09-125.51H145.6v-12.71h88.8zM281.98 679h-14.77V529.91h14.77zm39.99-149.09h14.76V679h-14.76zm10.76 77.52h47.69a29.38 29.38 0 0 0 15.38-4 27 27 0 0 0 10.3-11.18 36.18 36.18 0 0 0 3.64-16.61 36.74 36.74 0 0 0-3.64-16.76 26.86 26.86 0 0 0-10.25-11.23 29.29 29.29 0 0 0-15.38-4h-47.74v-13.74h47q13.32 0 23.48 5.69a39.5 39.5 0 0 1 15.74 16q5.58 10.35 5.59 24a49.3 49.3 0 0 1-5.59 23.84 39.68 39.68 0 0 1-15.74 16 47.27 47.27 0 0 1-23.48 5.69h-47z" fill="#fff"/></svg>